<svg xmlns="http://www.w3.org/2000/svg" version="1.1" xmlns:xlink="http://www.w3.org/1999/xlink" xmlns:svgjs="http://svgjs.com/svgjs" width="1440" height="1020" preserveAspectRatio="none" viewBox="0 0 1440 1020"><g mask="url(&quot;#SvgjsMask2375&quot;)" fill="none"><g mask="url(&quot;#SvgjsMask2377&quot;)"><path d="M1209.5 471.5L1168.5 512.5L1127.5 512.5L1086.5 512.5L1045.5 512.5L1004.5 512.5L963.5 512.5L922.5 512.5L881.5 512.5L840.5 512.5L799.5 512.5M594.5 471.5L553.5 471.5L512.5 471.5L471.5 471.5L430.5 471.5M348.5 389.5L307.5 389.5L266.5 430.5M676.5 471.5L635.5 430.5L594.5 430.5L553.5 389.5L512.5 389.5L471.5 389.5L430.5 389.5L389.5 348.5L348.5 348.5M717.5 471.5L676.5 430.5L635.5 389.5L594.5 389.5M758.5 471.5L717.5 512.5L676.5 512.5M1373.5 471.5L1332.5 512.5L1291.5 512.5L1250.5 512.5L1209.5 553.5L1168.5 553.5L1127.5 553.5M1496.5 512.5L1455.5 471.5L1414.5 471.5L1373.5 471.5L1332.5 471.5L1291.5 471.5L1250.5 471.5L1209.5 471.5L1168.5 471.5L1127.5 471.5L1086.5 471.5L1045.5 471.5L1004.5 471.5L963.5 471.5L922.5 471.5L881.5 471.5L840.5 471.5L799.5 471.5L758.5 471.5L717.5 471.5L676.5 471.5L635.5 471.5L594.5 471.5L553.5 430.5L512.5 430.5L471.5 430.5L430.5 430.5L389.5 389.5L348.5 389.5L307.5 348.5" stroke="url(#SvgjsLinearGradient2376)" stroke-width="6.83"></path><path d="M297.25 348.5 a10.25 10.25 0 1 0 20.5 0 a10.25 10.25 0 1 0 -20.5 0zM789.25 512.5 a10.25 10.25 0 1 0 20.5 0 a10.25 10.25 0 1 0 -20.5 0zM420.25 471.5 a10.25 10.25 0 1 0 20.5 0 a10.25 10.25 0 1 0 -20.5 0zM256.25 430.5 a10.25 10.25 0 1 0 20.5 0 a10.25 10.25 0 1 0 -20.5 0zM338.25 348.5 a10.25 10.25 0 1 0 20.5 0 a10.25 10.25 0 1 0 -20.5 0zM584.25 389.5 a10.25 10.25 0 1 0 20.5 0 a10.25 10.25 0 1 0 -20.5 0zM666.25 512.5 a10.25 10.25 0 1 0 20.5 0 a10.25 10.25 0 1 0 -20.5 0zM1117.25 553.5 a10.25 10.25 0 1 0 20.5 0 a10.25 10.25 0 1 0 -20.5 0z" fill="url(#SvgjsLinearGradient2376)"></path><path d="M1414.5 553.5L1373.5 512.5M1086.5 553.5L1045.5 594.5L1004.5 594.5L963.5 594.5L922.5 594.5M1127.5 594.5L1086.5 594.5M1496.5 553.5L1455.5 553.5L1414.5 553.5L1373.5 553.5L1332.5 553.5L1291.5 553.5L1250.5 553.5L1209.5 594.5L1168.5 594.5L1127.5 594.5L1086.5 553.5L1045.5 553.5L1004.5 553.5L963.5 553.5" stroke="url(#SvgjsLinearGradient2376)" stroke-width="6.83"></path><path d="M953.25 553.5 a10.25 10.25 0 1 0 20.5 0 a10.25 10.25 0 1 0 -20.5 0zM1363.25 512.5 a10.25 10.25 0 1 0 20.5 0 a10.25 10.25 0 1 0 -20.5 0zM912.25 594.5 a10.25 10.25 0 1 0 20.5 0 a10.25 10.25 0 1 0 -20.5 0zM1076.25 594.5 a10.25 10.25 0 1 0 20.5 0 a10.25 10.25 0 1 0 -20.5 0z" fill="url(#SvgjsLinearGradient2376)"></path><path d="M1004.5 430.5L963.5 389.5L922.5 389.5L881.5 389.5L840.5 389.5M1291.5 430.5L1250.5 389.5L1209.5 389.5L1168.5 389.5M1127.5 430.5L1086.5 389.5M799.5 430.5L758.5 389.5L717.5 389.5M1496.5 430.5L1455.5 430.5L1414.5 430.5L1373.5 430.5L1332.5 430.5L1291.5 430.5L1250.5 430.5L1209.5 430.5L1168.5 430.5L1127.5 430.5L1086.5 430.5L1045.5 430.5L1004.5 430.5L963.5 430.5L922.5 430.5L881.5 430.5L840.5 430.5L799.5 430.5L758.5 430.5" stroke="url(#SvgjsLinearGradient2376)" stroke-width="6.83"></path><path d="M748.25 430.5 a10.25 10.25 0 1 0 20.5 0 a10.25 10.25 0 1 0 -20.5 0zM830.25 389.5 a10.25 10.25 0 1 0 20.5 0 a10.25 10.25 0 1 0 -20.5 0zM1158.25 389.5 a10.25 10.25 0 1 0 20.5 0 a10.25 10.25 0 1 0 -20.5 0zM1076.25 389.5 a10.25 10.25 0 1 0 20.5 0 a10.25 10.25 0 1 0 -20.5 0zM707.25 389.5 a10.25 10.25 0 1 0 20.5 0 a10.25 10.25 0 1 0 -20.5 0z" fill="url(#SvgjsLinearGradient2376)"></path><path d="M1496.5 594.5L1455.5 594.5L1414.5 594.5L1373.5 594.5L1332.5 594.5L1291.5 594.5L1250.5 594.5L1209.5 635.5L1168.5 635.5L1127.5 635.5L1086.5 635.5" stroke="url(#SvgjsLinearGradient2376)" stroke-width="6.83"></path><path d="M1076.25 635.5 a10.25 10.25 0 1 0 20.5 0 a10.25 10.25 0 1 0 -20.5 0z" fill="url(#SvgjsLinearGradient2376)"></path><path d="M1373.5 389.5L1332.5 389.5L1291.5 389.5M1168.5 307.5L1127.5 266.5M1209.5 307.5L1168.5 348.5L1127.5 348.5L1086.5 348.5M1496.5 389.5L1455.5 389.5L1414.5 389.5L1373.5 389.5L1332.5 348.5L1291.5 348.5L1250.5 348.5L1209.5 307.5L1168.5 307.5L1127.5 307.5" stroke="url(#SvgjsLinearGradient2376)" stroke-width="6.83"></path><path d="M1117.25 307.5 a10.25 10.25 0 1 0 20.5 0 a10.25 10.25 0 1 0 -20.5 0zM1281.25 389.5 a10.25 10.25 0 1 0 20.5 0 a10.25 10.25 0 1 0 -20.5 0zM1117.25 266.5 a10.25 10.25 0 1 0 20.5 0 a10.25 10.25 0 1 0 -20.5 0zM1076.25 348.5 a10.25 10.25 0 1 0 20.5 0 a10.25 10.25 0 1 0 -20.5 0z" fill="url(#SvgjsLinearGradient2376)"></path><path d="M1496.5 635.5L1455.5 635.5L1414.5 635.5L1373.5 635.5" stroke="url(#SvgjsLinearGradient2376)" stroke-width="6.83"></path><path d="M1363.25 635.5 a10.25 10.25 0 1 0 20.5 0 a10.25 10.25 0 1 0 -20.5 0z" fill="url(#SvgjsLinearGradient2376)"></path><path d="M1086.5 225.5L1045.5 266.5L1004.5 266.5L963.5 266.5M1209.5 266.5L1168.5 266.5M1496.5 348.5L1455.5 348.5L1414.5 348.5L1373.5 348.5L1332.5 307.5L1291.5 307.5L1250.5 307.5L1209.5 266.5L1168.5 225.5L1127.5 225.5L1086.5 225.5L1045.5 225.5" stroke="url(#SvgjsLinearGradient2376)" stroke-width="6.83"></path><path d="M1035.25 225.5 a10.25 10.25 0 1 0 20.5 0 a10.25 10.25 0 1 0 -20.5 0zM953.25 266.5 a10.25 10.25 0 1 0 20.5 0 a10.25 10.25 0 1 0 -20.5 0zM1158.25 266.5 a10.25 10.25 0 1 0 20.5 0 a10.25 10.25 0 1 0 -20.5 0z" fill="url(#SvgjsLinearGradient2376)"></path><path d="M266.5 676.5L225.5 717.5L184.5 717.5M225.5 676.5L184.5 635.5L143.5 594.5L102.5 594.5M1209.5 676.5L1168.5 717.5M881.5 676.5L840.5 717.5M922.5 676.5L881.5 717.5L840.5 758.5M430.5 676.5L389.5 717.5L348.5 717.5L307.5 717.5L266.5 717.5M1004.5 676.5L963.5 635.5L922.5 635.5M307.5 676.5L266.5 635.5L225.5 635.5L184.5 594.5L143.5 553.5L102.5 553.5M1496.5 676.5L1455.5 676.5L1414.5 676.5L1373.5 676.5L1332.5 635.5L1291.5 635.5L1250.5 635.5L1209.5 676.5L1168.5 676.5L1127.5 676.5L1086.5 676.5L1045.5 676.5L1004.5 676.5L963.5 676.5L922.5 676.5L881.5 676.5L840.5 676.5L799.5 676.5L758.5 676.5L717.5 635.5L676.5 635.5L635.5 635.5L594.5 635.5L553.5 635.5L512.5 635.5L471.5 635.5L430.5 676.5L389.5 676.5L348.5 676.5L307.5 676.5L266.5 676.5L225.5 676.5L184.5 676.5" stroke="url(#SvgjsLinearGradient2376)" stroke-width="6.83"></path><path d="M174.25 676.5 a10.25 10.25 0 1 0 20.5 0 a10.25 10.25 0 1 0 -20.5 0zM174.25 717.5 a10.25 10.25 0 1 0 20.5 0 a10.25 10.25 0 1 0 -20.5 0zM92.25 594.5 a10.25 10.25 0 1 0 20.5 0 a10.25 10.25 0 1 0 -20.5 0zM1158.25 717.5 a10.25 10.25 0 1 0 20.5 0 a10.25 10.25 0 1 0 -20.5 0zM830.25 717.5 a10.25 10.25 0 1 0 20.5 0 a10.25 10.25 0 1 0 -20.5 0zM830.25 758.5 a10.25 10.25 0 1 0 20.5 0 a10.25 10.25 0 1 0 -20.5 0zM256.25 717.5 a10.25 10.25 0 1 0 20.5 0 a10.25 10.25 0 1 0 -20.5 0zM912.25 635.5 a10.25 10.25 0 1 0 20.5 0 a10.25 10.25 0 1 0 -20.5 0zM92.25 553.5 a10.25 10.25 0 1 0 20.5 0 a10.25 10.25 0 1 0 -20.5 0z" fill="url(#SvgjsLinearGradient2376)"></path><path d="M1496.5 307.5L1455.5 307.5L1414.5 307.5L1373.5 307.5L1332.5 266.5L1291.5 266.5L1250.5 266.5" stroke="url(#SvgjsLinearGradient2376)" stroke-width="6.83"></path><path d="M1240.25 266.5 a10.25 10.25 0 1 0 20.5 0 a10.25 10.25 0 1 0 -20.5 0z" fill="url(#SvgjsLinearGradient2376)"></path><path d="M1332.5 717.5L1291.5 758.5L1250.5 758.5L1209.5 758.5L1168.5 758.5M1373.5 717.5L1332.5 758.5L1291.5 799.5L1250.5 799.5M1291.5 717.5L1250.5 717.5L1209.5 717.5M1496.5 717.5L1455.5 717.5L1414.5 717.5L1373.5 717.5L1332.5 717.5L1291.5 717.5L1250.5 676.5" stroke="url(#SvgjsLinearGradient2376)" stroke-width="6.83"></path><path d="M1240.25 676.5 a10.25 10.25 0 1 0 20.5 0 a10.25 10.25 0 1 0 -20.5 0zM1158.25 758.5 a10.25 10.25 0 1 0 20.5 0 a10.25 10.25 0 1 0 -20.5 0zM1240.25 799.5 a10.25 10.25 0 1 0 20.5 0 a10.25 10.25 0 1 0 -20.5 0zM1199.25 717.5 a10.25 10.25 0 1 0 20.5 0 a10.25 10.25 0 1 0 -20.5 0z" fill="url(#SvgjsLinearGradient2376)"></path><path d="M389.5 102.5L348.5 143.5L307.5 143.5L266.5 143.5L225.5 143.5L184.5 143.5L143.5 143.5L102.5 143.5M799.5 143.5L758.5 102.5L717.5 102.5M430.5 102.5L389.5 143.5L348.5 184.5L307.5 184.5L266.5 184.5L225.5 184.5M1250.5 225.5L1209.5 184.5L1168.5 143.5L1127.5 143.5M553.5 102.5L512.5 143.5L471.5 143.5L430.5 143.5L389.5 184.5L348.5 225.5L307.5 225.5M1455.5 266.5L1414.5 225.5L1373.5 225.5L1332.5 184.5L1291.5 184.5L1250.5 184.5L1209.5 143.5L1168.5 102.5L1127.5 102.5M881.5 184.5L840.5 184.5M1496.5 266.5L1455.5 266.5L1414.5 266.5L1373.5 266.5L1332.5 225.5L1291.5 225.5L1250.5 225.5L1209.5 225.5L1168.5 184.5L1127.5 184.5L1086.5 184.5L1045.5 184.5L1004.5 184.5L963.5 184.5L922.5 184.5L881.5 184.5L840.5 143.5L799.5 143.5L758.5 143.5L717.5 143.5L676.5 102.5L635.5 102.5L594.5 102.5L553.5 102.5L512.5 102.5L471.5 102.5L430.5 102.5L389.5 102.5L348.5 102.5L307.5 102.5" stroke="url(#SvgjsLinearGradient2376)" stroke-width="6.83"></path><path d="M297.25 102.5 a10.25 10.25 0 1 0 20.5 0 a10.25 10.25 0 1 0 -20.5 0zM92.25 143.5 a10.25 10.25 0 1 0 20.5 0 a10.25 10.25 0 1 0 -20.5 0zM707.25 102.5 a10.25 10.25 0 1 0 20.5 0 a10.25 10.25 0 1 0 -20.5 0zM215.25 184.5 a10.25 10.25 0 1 0 20.5 0 a10.25 10.25 0 1 0 -20.5 0zM1117.25 143.5 a10.25 10.25 0 1 0 20.5 0 a10.25 10.25 0 1 0 -20.5 0zM297.25 225.5 a10.25 10.25 0 1 0 20.5 0 a10.25 10.25 0 1 0 -20.5 0zM1117.25 102.5 a10.25 10.25 0 1 0 20.5 0 a10.25 10.25 0 1 0 -20.5 0zM830.25 184.5 a10.25 10.25 0 1 0 20.5 0 a10.25 10.25 0 1 0 -20.5 0z" fill="url(#SvgjsLinearGradient2376)"></path></g></g><defs><mask id="SvgjsMask2375"><rect width="1440" height="1020" fill="#ffffff"></rect></mask><linearGradient x1="104.97600000000001" y1="-104.958" x2="1335.024" y2="1124.958" gradientUnits="userSpaceOnUse" id="SvgjsLinearGradient2376"><stop stop-color="rgba(193, 52, 76, 1)" offset="0.33"></stop><stop stop-color="rgba(33, 176, 172, 1)" offset="0.69"></stop></linearGradient><mask id="SvgjsMask2377"><rect width="1440" height="1020" fill="white"></rect><path d="M302.37 348.5 a5.13 5.13 0 1 0 10.26 0 a5.13 5.13 0 1 0 -10.26 0zM794.37 512.5 a5.13 5.13 0 1 0 10.26 0 a5.13 5.13 0 1 0 -10.26 0zM425.37 471.5 a5.13 5.13 0 1 0 10.26 0 a5.13 5.13 0 1 0 -10.26 0zM261.37 430.5 a5.13 5.13 0 1 0 10.26 0 a5.13 5.13 0 1 0 -10.26 0zM343.37 348.5 a5.13 5.13 0 1 0 10.26 0 a5.13 5.13 0 1 0 -10.26 0zM589.37 389.5 a5.13 5.13 0 1 0 10.26 0 a5.13 5.13 0 1 0 -10.26 0zM671.37 512.5 a5.13 5.13 0 1 0 10.26 0 a5.13 5.13 0 1 0 -10.26 0zM1122.37 553.5 a5.13 5.13 0 1 0 10.26 0 a5.13 5.13 0 1 0 -10.26 0z" fill="black"></path><path d="M958.37 553.5 a5.13 5.13 0 1 0 10.26 0 a5.13 5.13 0 1 0 -10.26 0zM1368.37 512.5 a5.13 5.13 0 1 0 10.26 0 a5.13 5.13 0 1 0 -10.26 0zM917.37 594.5 a5.13 5.13 0 1 0 10.26 0 a5.13 5.13 0 1 0 -10.26 0zM1081.37 594.5 a5.13 5.13 0 1 0 10.26 0 a5.13 5.13 0 1 0 -10.26 0z" fill="black"></path><path d="M753.37 430.5 a5.13 5.13 0 1 0 10.26 0 a5.13 5.13 0 1 0 -10.26 0zM835.37 389.5 a5.13 5.13 0 1 0 10.26 0 a5.13 5.13 0 1 0 -10.26 0zM1163.37 389.5 a5.13 5.13 0 1 0 10.26 0 a5.13 5.13 0 1 0 -10.26 0zM1081.37 389.5 a5.13 5.13 0 1 0 10.26 0 a5.13 5.13 0 1 0 -10.26 0zM712.37 389.5 a5.13 5.13 0 1 0 10.26 0 a5.13 5.13 0 1 0 -10.26 0z" fill="black"></path><path d="M1081.37 635.5 a5.13 5.13 0 1 0 10.26 0 a5.13 5.13 0 1 0 -10.26 0z" fill="black"></path><path d="M1122.37 307.5 a5.13 5.13 0 1 0 10.26 0 a5.13 5.13 0 1 0 -10.26 0zM1286.37 389.5 a5.13 5.13 0 1 0 10.26 0 a5.13 5.13 0 1 0 -10.26 0zM1122.37 266.5 a5.13 5.13 0 1 0 10.26 0 a5.13 5.13 0 1 0 -10.26 0zM1081.37 348.5 a5.13 5.13 0 1 0 10.26 0 a5.13 5.13 0 1 0 -10.26 0z" fill="black"></path><path d="M1368.37 635.5 a5.13 5.13 0 1 0 10.26 0 a5.13 5.13 0 1 0 -10.26 0z" fill="black"></path><path d="M1040.37 225.5 a5.13 5.13 0 1 0 10.26 0 a5.13 5.13 0 1 0 -10.26 0zM958.37 266.5 a5.13 5.13 0 1 0 10.26 0 a5.13 5.13 0 1 0 -10.26 0zM1163.37 266.5 a5.13 5.13 0 1 0 10.26 0 a5.13 5.13 0 1 0 -10.26 0z" fill="black"></path><path d="M179.37 676.5 a5.13 5.13 0 1 0 10.26 0 a5.13 5.13 0 1 0 -10.26 0zM179.37 717.5 a5.13 5.13 0 1 0 10.26 0 a5.13 5.13 0 1 0 -10.26 0zM97.37 594.5 a5.13 5.13 0 1 0 10.26 0 a5.13 5.13 0 1 0 -10.26 0zM1163.37 717.5 a5.13 5.13 0 1 0 10.26 0 a5.13 5.13 0 1 0 -10.26 0zM835.37 717.5 a5.13 5.13 0 1 0 10.26 0 a5.13 5.13 0 1 0 -10.26 0zM835.37 758.5 a5.13 5.13 0 1 0 10.26 0 a5.13 5.13 0 1 0 -10.26 0zM261.37 717.5 a5.13 5.13 0 1 0 10.26 0 a5.13 5.13 0 1 0 -10.26 0zM917.37 635.5 a5.13 5.13 0 1 0 10.26 0 a5.13 5.13 0 1 0 -10.26 0zM97.37 553.5 a5.13 5.13 0 1 0 10.26 0 a5.13 5.13 0 1 0 -10.26 0z" fill="black"></path><path d="M1245.37 266.5 a5.13 5.13 0 1 0 10.26 0 a5.13 5.13 0 1 0 -10.26 0z" fill="black"></path><path d="M1245.37 676.5 a5.13 5.13 0 1 0 10.26 0 a5.13 5.13 0 1 0 -10.26 0zM1163.37 758.5 a5.13 5.13 0 1 0 10.26 0 a5.13 5.13 0 1 0 -10.26 0zM1245.37 799.5 a5.13 5.13 0 1 0 10.26 0 a5.13 5.13 0 1 0 -10.26 0zM1204.37 717.5 a5.13 5.13 0 1 0 10.26 0 a5.13 5.13 0 1 0 -10.26 0z" fill="black"></path><path d="M302.37 102.5 a5.13 5.13 0 1 0 10.26 0 a5.13 5.13 0 1 0 -10.26 0zM97.37 143.5 a5.13 5.13 0 1 0 10.26 0 a5.13 5.13 0 1 0 -10.26 0zM712.37 102.5 a5.13 5.13 0 1 0 10.26 0 a5.13 5.13 0 1 0 -10.26 0zM220.37 184.5 a5.13 5.13 0 1 0 10.26 0 a5.13 5.13 0 1 0 -10.26 0zM1122.37 143.5 a5.13 5.13 0 1 0 10.26 0 a5.13 5.13 0 1 0 -10.26 0zM302.37 225.5 a5.13 5.13 0 1 0 10.26 0 a5.13 5.13 0 1 0 -10.26 0zM1122.37 102.5 a5.13 5.13 0 1 0 10.26 0 a5.13 5.13 0 1 0 -10.26 0zM835.37 184.5 a5.13 5.13 0 1 0 10.26 0 a5.13 5.13 0 1 0 -10.26 0z" fill="black"></path></mask></defs></svg>